{
  "accessors": [
    {
      "bufferView": 2,
      "componentType": 5126,
      "count": 4556,
      "max": [
        1.1572890281677246,
        1.9612809419631958,
        0.07573799788951874
      ],
      "min": [
        1.0772889852523804,
        1.930040955543518,
        -0.04426199942827225
      ],
      "type": "VEC3"
    },
    {
      "bufferView": 2,
      "byteOffset": 54672,
      "componentType": 5126,
      "count": 4556,
      "max": [
        1.0,
        1.0,
        1.0
      ],
      "min": [
        -1.0,
        -1.0,
        -1.0
      ],
      "type": "VEC3"
    },
    {
      "bufferView": 3,
      "componentType": 5126,
      "count": 4556,
      "max": [
        1.0,
        1.0,
        0.9981189370155334,
        1.0
      ],
      "min": [
        -1.0,
        -1.0,
        -0.9874147772789001,
        -1.0
      ],
      "type": "VEC4"
    },
    {
      "bufferView": 1,
      "componentType": 5126,
      "count": 4556,
      "max": [
        0.9843590259552002,
        0.9947100281715393
      ],
      "min": [
        0.005289999768137932,
        0.005289999768137932
      ],
      "type": "VEC2"
    },
    {
      "bufferView": 0,
      "componentType": 5125,
      "count": 12012,
      "type": "SCALAR"
    }
  ],
  "asset": {
    "extras": {
      "author": "Progressive Dreamer (https://sketchfab.com/dbtjdwns0000)",
      "license": "CC-BY-4.0 (http://creativecommons.org/licenses/by/4.0/)",
      "source": "https://sketchfab.com/3d-models/soket-961afedfa07b4d0bb73bd1c536ad1c8e",
      "title": "Soket"
    },
    "generator": "Sketchfab-16.16.0",
    "version": "2.0"
  },
  "bufferViews": [
    {
      "buffer": 0,
      "byteLength": 48048,
      "name": "floatBufferViews",
      "target": 34963
    },
    {
      "buffer": 0,
      "byteLength": 36448,
      "byteOffset": 48048,
      "byteStride": 8,
      "name": "floatBufferViews",
      "target": 34962
    },
    {
      "buffer": 0,
      "byteLength": 109344,
      "byteOffset": 84496,
      "byteStride": 12,
      "name": "floatBufferViews",
      "target": 34962
    },
    {
      "buffer": 0,
      "byteLength": 72896,
      "byteOffset": 193840,
      "byteStride": 16,
      "name": "floatBufferViews",
      "target": 34962
    }
  ],
  "buffers": [
    {
      "byteLength": 266736,
      "uri": "scene.bin"
    }
  ],
  "images": [
    {
      "uri": "textures/socket_baseColor.png"
    },
    {
      "uri": "textures/socket_metallicRoughness.png"
    },
    {
      "uri": "textures/socket_normal.png"
    }
  ],
  "materials": [
    {
      "doubleSided": true,
      "name": "socket",
      "normalTexture": {
        "index": 2
      },
      "pbrMetallicRoughness": {
        "baseColorTexture": {
          "index": 0
        },
        "metallicRoughnessTexture": {
          "index": 1
        }
      }
    }
  ],
  "meshes": [
    {
      "name": "Object_0",
      "primitives": [
        {
          "attributes": {
            "NORMAL": 1,
            "POSITION": 0,
            "TANGENT": 2,
            "TEXCOORD_0": 3
          },
          "indices": 4,
          "material": 0,
          "mode": 4
        }
      ]
    }
  ],
  "nodes": [
    {
      "children": [
        1
      ],
      "matrix": [
        1.0,
        0.0,
        0.0,
        0.0,
        0.0,
        2.220446049250313e-16,
        -1.0,
        0.0,
        0.0,
        1.0,
        2.220446049250313e-16,
        0.0,
        0.0,
        0.0,
        0.0,
        1.0
      ],
      "name": "Sketchfab_model"
    },
    {
      "children": [
        2
      ],
      "name": "e0d6eb0940c14bdd8ccb90cb9ba87b7b.obj.cleaner.materialmerger.gles"
    },
    {
      "mesh": 0,
      "name": "Object_2"
    }
  ],
  "samplers": [
    {
      "magFilter": 9729,
      "minFilter": 9987,
      "wrapS": 10497,
      "wrapT": 10497
    }
  ],
  "scene": 0,
  "scenes": [
    {
      "name": "Sketchfab_Scene",
      "nodes": [
        0
      ]
    }
  ],
  "textures": [
    {
      "sampler": 0,
      "source": 0
    },
    {
      "sampler": 0,
      "source": 1
    },
    {
      "sampler": 0,
      "source": 2
    }
  ]
}
